HIERARCHY
ROOT SpineBase
{
  OFFSET 0.000000 0.000000 0.000000
  CHANNELS 6 Xposition Yposition Zposition Zrotation Xrotation Yrotation
  JOINT SpineMid
  {
    OFFSET 0.000000 34.026323 0.000000
    CHANNELS 3 Zrotation Xrotation Yrotation
    JOINT SpineShoulder
    {
      OFFSET 0.378367 25.161640 -0.301688
      CHANNELS 3 Zrotation Xrotation Yrotation
      JOINT Neck
      {
        OFFSET 0.232385 8.316045 -0.375286
        CHANNELS 3 Zrotation Xrotation Yrotation
        JOINT Head
        {
          OFFSET 1.294207 12.871862 5.370808
          CHANNELS 3 Zrotation Xrotation Yrotation
          End Site
          {
            OFFSET 0 0 0
          }
        }
      }
      JOINT ShoulderLeft
      {
        OFFSET -14.574519 -6.112768 -24.605959
        CHANNELS 3 Zrotation Xrotation Yrotation
        JOINT ElbowLeft
        {
          OFFSET 17.026567 -17.278372 15.961115
          CHANNELS 3 Zrotation Xrotation Yrotation
          JOINT WristLeft
          {
            OFFSET 12.385876 -19.371149 10.485168
            CHANNELS 3 Zrotation Xrotation Yrotation
            JOINT HandLeft
            {
              OFFSET -6.639061 -3.293308 -0.331907
              CHANNELS 3 Zrotation Xrotation Yrotation
              JOINT HandTipLeft
              {
                OFFSET 0.776341 -5.116075 -0.599626
                CHANNELS 3 Zrotation Xrotation Yrotation
                End Site
                {
                  OFFSET 0 0 0
                }
              }
              JOINT ThumbLeft
              {
                OFFSET -1.916882 -1.176780 -5.542186
                CHANNELS 3 Zrotation Xrotation Yrotation
                End Site
                {
                  OFFSET 0 0 0
                }
              }
            }
          }
        }
      }
      JOINT ShoulderRight
      {
        OFFSET -2.133673 -5.852726 -13.336266
        CHANNELS 3 Zrotation Xrotation Yrotation
        JOINT ElbowRight
        {
          OFFSET -5.968713 -27.871825 -7.492813
          CHANNELS 3 Zrotation Xrotation Yrotation
          JOINT WristRight
          {
            OFFSET -10.721682 -19.862557 -4.000773
            CHANNELS 3 Zrotation Xrotation Yrotation
            JOINT HandRight
            {
              OFFSET -1.664381 -8.285946 2.560995
              CHANNELS 3 Zrotation Xrotation Yrotation
              JOINT HandTipRight
              {
                OFFSET -3.367588 -6.939771 0.550968
                CHANNELS 3 Zrotation Xrotation Yrotation
                End Site
                {
                  OFFSET 0 0 0
                }
              }
              JOINT ThumbRight
              {
                OFFSET 4.785182 -0.136211 2.835836
                CHANNELS 3 Zrotation Xrotation Yrotation
                End Site
                {
                  OFFSET 0 0 0
                }
              }
            }
          }
        }
      }
    }
  }
  JOINT HipLeft
  {
    OFFSET -5.156290 0.424316 -0.277355
    CHANNELS 3 Zrotation Xrotation Yrotation
    JOINT KneeLeft
    {
      OFFSET -1.101720 -39.885006 -2.299975
      CHANNELS 3 Zrotation Xrotation Yrotation
      JOINT AnkleLeft
      {
        OFFSET 0.981551 -37.689450 4.963076
        CHANNELS 3 Zrotation Xrotation Yrotation
        JOINT FootLeft
        {
          OFFSET 2.963819 -4.662116 -9.033358
          CHANNELS 3 Zrotation Xrotation Yrotation
          End Site
          {
            OFFSET 0 0 0
          }
        }
      }
    }
  }
  JOINT HipRight
  {
    OFFSET 4.537281 1.538705 -7.268653
    CHANNELS 3 Zrotation Xrotation Yrotation
    JOINT KneeRight
    {
      OFFSET -17.184664 -36.273624 -3.491723
      CHANNELS 3 Zrotation Xrotation Yrotation
      JOINT AnkleRight
      {
        OFFSET -0.365721 -39.971463 -0.601316
        CHANNELS 3 Zrotation Xrotation Yrotation
        JOINT FootRight
        {
          OFFSET 2.412771 -4.887360 -5.386210
          CHANNELS 3 Zrotation Xrotation Yrotation
          End Site
          {
            OFFSET 0 0 0
          }
        }
      }
    }
  }
}
MOTION
Frames: 6
Frame Time: 0.033333
12.466915 85.118466 291.461290 -0.000000 0.000000 35.800288 -0.000000 0.000000 -35.800288 -0.000000 0.000000 0.000000 -0.000000 0.000000 0.000000 0.000000 0.000000 0.000000 -0.000000 0.000000 0.000000 -0.000000 0.000000 0.000000 -0.000000 0.000000 0.000000 -0.000000 0.000000 0.000000 0.000000 0.000000 0.000000 0.000000 0.000000 0.000000 -0.000000 0.000000 0.000000 -0.000000 0.000000 0.000000 -0.000000 0.000000 0.000000 -0.000000 0.000000 0.000000 0.000000 0.000000 0.000000 0.000000 0.000000 0.000000 -0.000000 0.000000 -35.800288 -0.000000 0.000000 0.000000 -0.000000 0.000000 0.000000 0.000000 0.000000 0.000000 -0.000000 0.000000 -35.800288 -0.000000 0.000000 0.000000 -0.000000 0.000000 0.000000 0.000000 0.000000 0.000000
12.490431 84.895248 292.203729 0.038046 -0.212403 34.916457 0.090379 0.195945 -34.916541 -0.000000 0.000000 0.000000 2.350420 0.988845 -1.098843 0.000000 0.000000 0.000000 -0.000000 0.000000 0.000000 -0.000000 0.000000 0.000000 0.766841 0.493794 -1.090251 -0.757336 -0.508252 1.083587 0.000000 0.000000 0.000000 0.000000 0.000000 0.000000 -0.000000 0.000000 0.000000 -0.000000 0.000000 0.000000 -1.849942 -0.131694 -0.545530 1.848611 0.149230 0.540996 0.000000 0.000000 0.000000 0.000000 0.000000 0.000000 0.090379 0.195945 -34.916541 -0.466585 0.683810 -0.040885 0.467106 -0.683455 0.046456 0.000000 0.000000 0.000000 0.330010 1.138001 -35.316411 0.349080 -0.907215 0.399844 4.857639 7.594913 -1.758731 0.000000 0.000000 0.000000
12.494748 84.674357 292.855691 0.061284 -0.392288 34.078625 -0.012266 -0.650470 -34.060319 0.218732 -0.023481 0.034733 3.469201 2.709094 -2.063158 0.000000 0.000000 0.000000 -0.633486 0.961916 -0.050162 -0.000000 0.000000 0.000000 1.434731 0.952507 -2.128460 -0.966133 0.469998 2.270182 0.000000 0.000000 0.000000 0.000000 0.000000 0.000000 -0.633486 0.961916 -0.050162 -0.000000 0.000000 0.000000 -3.438229 -0.185420 -1.024600 2.723555 1.076726 0.556761 0.000000 0.000000 0.000000 0.000000 0.000000 0.000000 0.169052 0.359259 -34.078945 -0.853177 1.264761 -0.070110 1.699059 -0.427147 -0.985433 0.000000 0.000000 0.000000 0.606610 2.142982 -34.840162 1.465254 -2.508547 0.786626 7.339022 13.159513 -3.315774 0.000000 0.000000 0.000000
12.479866 84.455791 293.417176 0.069912 -0.540133 33.288053 0.004355 -0.904506 -33.263296 0.315831 -0.043443 0.047802 4.371739 3.649593 -2.710201 0.000000 0.000000 0.000000 -0.884238 1.338246 -0.066996 -0.000000 0.000000 0.000000 2.002691 1.380314 -3.113928 -1.572559 0.814987 3.356186 0.000000 0.000000 0.000000 0.000000 0.000000 0.000000 -0.884238 1.338246 -0.066996 -0.000000 0.000000 0.000000 -4.771332 -0.168180 -1.436041 3.758896 1.464958 0.773478 0.000000 0.000000 0.000000 0.000000 0.000000 0.000000 1.367815 0.617964 -33.370142 -2.034324 1.012615 -0.039719 2.673640 -0.172036 -1.724351 0.000000 0.000000 0.000000 0.837007 3.015474 -34.371633 2.029794 -3.422432 1.133394 9.244519 16.405837 -4.442847 0.000000 0.000000 0.000000
12.445784 84.239551 293.888184 0.064110 -0.656389 32.545836 0.032487 -1.111182 -32.516264 0.404592 -0.068469 0.058408 4.724268 4.349619 -3.066406 0.000000 0.000000 0.000000 -1.091561 1.645494 -0.079601 -0.000000 0.000000 0.000000 2.469848 1.781211 -4.046322 -2.287050 1.217838 4.414069 0.000000 0.000000 0.000000 0.000000 0.000000 0.000000 -1.091561 1.645494 -0.079601 -0.000000 0.000000 0.000000 -5.855869 -0.085641 -1.779828 4.586853 1.752560 0.951210 0.000000 0.000000 0.000000 0.000000 0.000000 0.000000 1.742733 0.780129 -32.654353 -2.499742 1.172897 -0.043849 3.719987 0.365658 -2.615638 0.000000 0.000000 0.000000 1.027864 3.756047 -33.911150 2.477891 -4.115549 1.440168 10.437540 18.413822 -5.182358 0.000000 0.000000 0.000000
12.392504 84.025636 294.268715 0.044046 -0.741474 31.852915 0.069697 -1.270718 -31.820072 0.484942 -0.098298 0.066791 4.529344 4.824020 -3.116952 0.000000 0.000000 0.000000 -1.255851 1.884192 -0.088720 -0.000000 0.000000 0.000000 2.835321 2.158968 -4.925569 -3.124545 1.663803 5.447528 0.000000 0.000000 0.000000 0.000000 0.000000 0.000000 -1.255851 1.884192 -0.088720 -0.000000 0.000000 0.000000 -6.697807 0.057953 -2.056672 5.214026 1.939102 1.091109 0.000000 0.000000 0.000000 0.000000 0.000000 0.000000 2.080383 0.917115 -31.986161 -2.858875 1.243708 -0.043765 4.826360 1.156927 -3.649093 0.000000 0.000000 0.000000 1.185293 4.365203 -33.459164 2.806366 -4.591072 1.701808 11.086418 19.516068 -5.563090 0.000000 0.000000 0.000000
